<svg width="124" height="247" viewBox="0 0 124 247" fill="none" xmlns="http://www.w3.org/2000/svg">
<path d="M16.9327 166.669V168.38C16.9327 168.38 16.307 164.958 17.6172 170.091C18.9274 175.225 18.9862 175.909 20.0129 179.332C21.0396 182.754 20.3551 181.385 21.724 185.15C22.0663 186.519 35.697 198.839 39.4616 201.577C43.2262 204.315 46.6485 207.737 59.3113 210.133C59.3113 210.019 59.4482 209.722 59.9957 209.448C60.5433 209.175 61.5928 209.562 62.0492 209.791C62.0492 209.334 61.6887 207.089 61.0812 206.026C58.3433 201.235 63.4181 208.422 64.1026 211.159C64.787 212.757 66.156 216.361 66.156 218.004C66.156 219.647 65.6997 221.655 65.4715 222.453C64.9011 224.05 63.4181 226.56 63.0759 227.245C62.7336 227.929 61.7069 228.614 61.3647 230.667C61.0224 232.72 62.7336 237.854 63.7603 239.907C64.787 241.961 67.8672 244.356 72.3162 244.356C76.7653 244.356 82.2411 242.645 82.9255 242.303C83.61 241.961 89.428 239.223 92.1659 232.378C94.9038 225.533 94.9038 224.849 95.246 223.138C95.5198 221.769 95.3601 200.892 95.246 190.625C95.246 190.151 95.4824 189.331 96.3481 189.224C96.5241 189.202 96.726 189.21 96.9572 189.256C98.6684 189.599 102.433 188.914 103.46 186.861C105.057 185.15 108.593 177.62 108.935 176.936C109.278 176.251 110.647 172.966 110.647 170.776C110.875 167.81 110.989 160.851 110.989 160.166C110.989 159.482 110.989 153.322 110.647 149.899C110.304 146.477 108.593 139.974 108.251 138.606C107.909 137.237 105.572 129.707 102.775 124.232C99.9786 118.756 94.63 112.732 92.1659 111.911C83.4464 119 65.9464 121 57.9464 120.5C49.9464 120 35.9464 115 29.4464 111C26.7085 115.335 20.9809 129.023 20.6386 129.707C20.2964 130.392 16.874 142.712 16.5318 151.953C16.4177 156.174 16.2483 164.958 16.9327 166.669Z" fill="white"/>
<path d="M22.6333 106.778C20.1236 109.401 14.7619 116.702 14.7619 116.702C13.2789 119.212 10.1759 124.642 9.62835 126.285C8.94388 128.338 6.20599 135.525 5.52152 139.29C4.83705 141.914 3.33121 147.914 2.78363 150.926C2.09916 154.691 2.78363 163.246 3.46811 165.642C4.15258 168.038 5.86376 172.487 8.94388 173.171C11.408 173.719 15.8473 172.145 16.1896 167.353C16.5318 162.562 16.9327 166.669 16.9327 166.669C16.2483 164.958 16.4177 156.174 16.5318 151.953C16.874 142.712 20.2964 130.392 20.6386 129.707C20.9809 129.023 26.7085 115.335 29.4464 111C27.1648 110.316 23.4547 107.599 22.6333 106.778Z" fill="white"/>
<path d="M21.724 185.15C23.093 188.914 23.7969 190.968 24.3445 192.337C25.029 194.048 30.9057 207.395 30.847 208.079C30.7883 208.764 30.847 210.817 30.1625 212.528C29.478 214.24 27.3659 214.924 26.3979 215.951C25.4299 216.978 24.3445 220.058 24.3445 221.427C24.3445 222.796 24.0023 225.876 24.6867 228.271C25.3712 230.667 29.8203 234.089 31.8737 234.432C33.9271 234.774 37.3495 235.8 41.1141 235.116C44.8786 234.432 51.0389 230.667 51.3811 229.982C53.4345 228.157 57.6783 223.959 58.2258 221.769C58.6822 220.628 59.5948 217.73 59.5948 215.266L59.3113 210.133C46.6485 207.737 43.2262 204.315 39.4616 201.577C35.697 198.839 22.0663 186.519 21.724 185.15Z" fill="white"/>
<path d="M16.9327 166.669C16.9327 166.669 16.5318 162.562 16.1896 167.353C15.8473 172.145 11.408 173.719 8.94388 173.171C5.86376 172.487 4.15258 168.038 3.46811 165.642C2.78363 163.246 2.09916 154.691 2.78363 150.926C3.33121 147.914 4.83705 141.914 5.52152 139.29C6.20599 135.525 8.94388 128.338 9.62835 126.285C10.1759 124.642 13.2789 119.212 14.7619 116.702C14.7619 116.702 20.1236 109.401 22.6333 106.778C23.4547 107.599 27.1648 110.316 29.4464 111M16.9327 166.669V168.38C16.9327 168.38 16.307 164.958 17.6172 170.091C18.9274 175.225 18.9862 175.909 20.0129 179.332C21.0396 182.754 20.3551 181.385 21.724 185.15M16.9327 166.669C16.2483 164.958 16.4177 156.174 16.5318 151.953C16.874 142.712 20.2964 130.392 20.6386 129.707C20.9809 129.023 26.7085 115.335 29.4464 111M21.724 185.15C23.093 188.914 23.7969 190.968 24.3445 192.337C25.029 194.048 30.9057 207.395 30.847 208.079C30.7883 208.764 30.847 210.817 30.1625 212.528C29.478 214.24 27.3659 214.924 26.3979 215.951C25.4299 216.978 24.3445 220.058 24.3445 221.427C24.3445 222.796 24.0023 225.876 24.6867 228.271C25.3712 230.667 29.8203 234.089 31.8737 234.432C33.9271 234.774 37.3495 235.8 41.1141 235.116C44.8786 234.432 51.0389 230.667 51.3811 229.982C53.4345 228.157 57.6783 223.959 58.2258 221.769C58.6822 220.628 59.5948 217.73 59.5948 215.266M21.724 185.15C22.0663 186.519 35.697 198.839 39.4616 201.577C43.2262 204.315 46.6485 207.737 59.3113 210.133M59.5948 215.266C59.5948 212.802 59.3113 210.817 59.3113 210.133M59.5948 215.266L59.3113 210.133M59.3113 210.133C59.3113 210.019 59.4482 209.722 59.9957 209.448C60.5433 209.175 61.5928 209.562 62.0492 209.791C62.0492 209.334 61.6887 207.089 61.0812 206.026C58.3433 201.235 63.4181 208.422 64.1026 211.159C64.787 212.757 66.156 216.361 66.156 218.004C66.156 219.647 65.6997 221.655 65.4715 222.453C64.9011 224.05 63.4181 226.56 63.0759 227.245C62.7336 227.929 61.7069 228.614 61.3647 230.667C61.0224 232.72 62.7336 237.854 63.7603 239.907C64.787 241.961 67.8672 244.356 72.3162 244.356C76.7653 244.356 82.2411 242.645 82.9255 242.303C83.61 241.961 89.428 239.223 92.1659 232.378C94.9038 225.533 94.9038 224.849 95.246 223.138C95.5198 221.769 95.3601 200.892 95.246 190.625C95.246 190.151 95.4824 189.331 96.3481 189.224M96.9572 189.256C98.6684 189.599 102.433 188.914 103.46 186.861C105.057 185.15 108.593 177.62 108.935 176.936C109.278 176.251 110.647 172.966 110.647 170.776C110.875 167.81 110.989 160.851 110.989 160.166C110.989 159.482 110.989 153.322 110.647 149.899C110.304 146.477 108.593 139.974 108.251 138.606C107.909 137.237 105.572 129.707 102.775 124.232C99.9786 118.756 94.63 112.732 92.1659 111.911C83.4464 119 65.9464 121 57.9464 120.5C49.9464 120 35.9464 115 29.4464 111M96.9572 189.256C96.726 189.21 96.5241 189.202 96.3481 189.224M96.9572 189.256C96.7515 189.256 96.5484 189.245 96.3481 189.224M77.3911 131.761C79.2163 135.639 81.4979 143.055 82.1824 145.45C82.8668 147.846 85.194 157.018 84.9202 158.113C84.9202 161.763 85.6047 170.091 85.9469 171.46C86.2892 172.829 89.7115 184.123 90.7383 185.492C91.6948 186.767 93.6157 188.934 96.3481 189.224" stroke="black" stroke-width="5"/>
<circle cx="62.049" cy="61.6025" r="59.1025" fill="white" stroke="black" stroke-width="5"/>
<path d="M29.3908 78.5604C29.9302 79.9171 31.8345 82.3608 34.4865 84.071C36.4521 85.2213 38.6425 86.3206 41.1536 86.9335C42.5859 87.1419 44.3389 87.1419 46.1451 87.1419" stroke="black" stroke-width="7" stroke-linecap="round"/>
<path d="M27.1792 34.9379C25.4681 35.1661 21.7035 36.3753 20.3345 39.387C19.8782 40.0715 18.6918 42.1249 17.5966 44.8628C16.5015 47.6006 16.2277 50.3385 16.2277 51.3652C16.1136 52.8483 16.2277 55.4721 16.9122 57.1833C17.5966 58.8944 18.1442 59.8527 20.3345 60.9478C22.5248 62.043 25.1258 61.8605 26.1525 61.6323C27.1792 61.2901 29.5064 60.2634 30.6016 58.8944C31.6967 57.5255 32.1987 55.1298 32.3128 54.1031L32.9972 48.9696C33.3395 47.0303 33.9555 42.7409 33.6817 41.0982C33.3395 39.0448 31.6283 36.9913 30.9438 36.3069C30.2593 35.6224 28.206 34.733 27.1792 34.9379Z" fill="white" stroke="black" stroke-width="5"/>
<ellipse cx="25.6907" cy="51.6409" rx="4.10683" ry="7.18695" transform="rotate(10.5571 25.6907 51.6409)" fill="black"/>
<path d="M62.7333 39.0285C60.6799 39.1269 57.5998 38.8232 54.8619 40.7397C52.124 42.6562 50.7551 44.5043 50.4128 45.1888C49.8424 45.9873 48.6332 47.8582 48.3594 48.9534C48.0172 50.3223 47.6749 51.0068 47.6749 53.0602C47.6749 55.1136 48.0172 57.8515 48.7016 59.2205C49.3861 60.5894 52.4662 63.4257 53.4929 64.0118C54.5197 64.5978 55.2041 65.0385 59.9954 65.3807C63.8285 65.6545 64.4445 65.6245 65.8134 65.9668C67.1824 66.309 67.8669 66.6512 68.5513 66.6512C69.2358 66.6512 69.9203 66.6512 70.947 65.6245C71.9737 64.5978 74.0271 61.5177 74.7116 60.1488C75.396 58.7798 76.0805 56.7264 76.4228 53.7447C76.765 50.763 75.9664 48.7252 75.7383 47.9267C75.0538 46.2155 72.6582 43.037 71.2892 42.1087C69.9203 41.1803 69.578 40.7397 67.8669 40.0552C66.1557 39.3708 64.7867 38.9301 62.7333 39.0285Z" fill="white" stroke="black" stroke-width="5"/>
<ellipse cx="58.6264" cy="53.7309" rx="5.47577" ry="8.5559" fill="black"/>
</svg>
